<svg width="24" height="24" viewBox="0 0 24 24" fill="none" xmlns="http://www.w3.org/2000/svg">
<path d="M20.8401 4.60999C20.3293 4.099 19.7229 3.69364 19.0554 3.41708C18.388 3.14052 17.6725 2.99817 16.9501 2.99817C16.2276 2.99817 15.5122 3.14052 14.8447 3.41708C14.1772 3.69364 13.5708 4.099 13.0601 4.60999L12.0001 5.66999L10.9401 4.60999C9.90837 3.5783 8.50909 2.9987 7.05006 2.9987C5.59103 2.9987 4.19175 3.5783 3.16006 4.60999C2.12837 5.64169 1.54877 7.04096 1.54877 8.49999C1.54877 9.95903 2.12837 11.3583 3.16006 12.39L4.22006 13.45L12.0001 21.23L19.7801 13.45L20.8401 12.39C21.3511 11.8792 21.7564 11.2728 22.033 10.6053C22.3095 9.93789 22.4519 9.22248 22.4519 8.49999C22.4519 7.77751 22.3095 7.0621 22.033 6.39464C21.7564 5.72718 21.3511 5.12075 20.8401 4.60999V4.60999Z" stroke="currentColor" stroke-width="1.5" stroke-linecap="round" stroke-linejoin="round"/>
</svg>
